<?xml version="1.0" encoding="utf-8"?>
<svg viewBox="0 0 227 459" fill="none" xmlns="http://www.w3.org/2000/svg">
  <path d="M2.19604 35.5434C2.19604 15.9133 18.0194 0 37.5384 0H188.658C208.177 0 224 15.9133 224 35.5434V423.457C224 443.087 208.177 459 188.658 459H37.5384C18.0194 459 2.19604 443.087 2.19604 423.457V35.5434Z" fill="#C2C9D2" transform="matrix(1, 0, 0, 1, 1.1368683772161603e-13, 0)"/>
  <path d="M 69.822 24.153 L 157.472 24.153 C 164.242 24.153 169.731 18.656 169.731 11.875 C 169.731 10.18 171.103 8.806 172.795 8.806 L 185.667 8.806 C 202.593 8.806 216.314 22.548 216.314 39.5 L 216.314 419.5 C 216.314 436.452 202.593 450.194 185.667 450.194 L 41.627 450.194 C 24.701 450.194 10.98 436.452 10.98 419.5 L 10.98 39.5 C 10.98 22.548 24.701 8.806 41.627 8.806 L 54.499 8.806 C 56.191 8.806 57.563 10.18 57.563 11.875 C 57.563 18.656 63.052 24.153 69.822 24.153 Z" style="fill: rgb(31, 36, 42);" transform="matrix(1, 0, 0, 1, 1.1368683772161603e-13, 0)"/>
  <path d="M94.4314 15.9604C94.4314 15.0486 95.2742 14.3094 96.3137 14.3094H118.902C119.942 14.3094 120.784 15.0486 120.784 15.9604C120.784 16.8723 119.942 17.6115 118.902 17.6115H96.3138C95.2742 17.6115 94.4314 16.8723 94.4314 15.9604Z" fill="#A4AFBB" transform="matrix(1, 0, 0, 1, 1.1368683772161603e-13, 0)"/>
  <path d="M132.863 15.4101C132.863 17.2338 131.88 18.7122 130.667 18.7122C129.454 18.7122 128.471 17.2338 128.471 15.4101C128.471 13.5863 129.454 12.1079 130.667 12.1079C131.88 12.1079 132.863 13.5863 132.863 15.4101Z" fill="#A4AFBB" transform="matrix(1, 0, 0, 1, 1.1368683772161603e-13, 0)"/>
  <path d="M0 70.5836C0 69.8997 0.655479 69.3453 1.46405 69.3453H2.19608V89.1583H1.46405C0.655479 89.1583 0 88.6039 0 87.92V70.5836Z" fill="#A4AFBB" transform="matrix(1, 0, 0, 1, 1.1368683772161603e-13, 0)"/>
  <path d="M226.196 115.687C226.196 115.017 225.541 114.475 224.732 114.475H224V168.41H224.732C225.541 168.41 226.196 167.867 226.196 167.198V115.687Z" fill="#A4AFBB" transform="matrix(1, 0, 0, 1, 1.1368683772161603e-13, 0)"/>
  <path d="M0 104.686C0 104.013 0.655479 103.468 1.46405 103.468H2.19608V137.59H1.46405C0.655479 137.59 0 137.044 0 136.371V104.686Z" fill="#A4AFBB" transform="matrix(1, 0, 0, 1, 1.1368683772161603e-13, 0)"/>
  <path d="M0 147.614C0 146.941 0.655479 146.396 1.46405 146.396H2.19608V180.518H1.46405C0.655479 180.518 0 179.972 0 179.299V147.614Z" fill="#A4AFBB" transform="matrix(1, 0, 0, 1, 1.1368683772161603e-13, 0)"/>
  <rect x="25.775" y="43.199" width="50.725" height="76.088" style="fill: rgb(216, 216, 216); stroke: rgb(0, 0, 0);" transform="matrix(1, 0, 0, 1, 1.1368683772161603e-13, 0)"/>
  <ellipse style="fill: rgb(216, 216, 216); stroke: rgb(0, 0, 0);" cx="50.828" cy="75.057" rx="13.918" ry="14.537" transform="matrix(1, 0, 0, 1, 1.1368683772161603e-13, 0)"/>
  <text style="fill: rgb(255, 255, 255); font-family: Arial, sans-serif; font-size: 9.1px; white-space: pre;" x="29.241" y="115.609" transform="matrix(1, 0, 0, 1, 1.1368683772161603e-13, 0)">washer</text>
  <rect x="89.948" y="43.281" width="50.725" height="76.088" style="fill: rgb(216, 216, 216); stroke: rgb(0, 0, 0);" transform="matrix(1, 0, 0, 1, 1.1368683772161603e-13, 0)"/>
  <ellipse style="fill: rgb(216, 216, 216); stroke: rgb(0, 0, 0);" cx="115.001" cy="76.139" rx="13.918" ry="14.537" transform="matrix(1, 0, 0, 1, 1.1368683772161603e-13, 0)"/>
  <text style="fill: rgb(255, 255, 255); font-family: Arial, sans-serif; font-size: 9.1px; white-space: pre;" x="93.414" y="115.691" transform="matrix(1, 0, 0, 1, 1.1368683772161603e-13, 0)">washer</text>
  <rect x="155.103" y="43.478" width="50.725" height="76.088" style="fill: rgb(216, 216, 216); stroke: rgb(0, 0, 0);" transform="matrix(1, 0, 0, 1, 1.1368683772161603e-13, 0)"/>
  <ellipse style="fill: rgb(216, 216, 216); stroke: rgb(0, 0, 0);" cx="180.156" cy="76.336" rx="13.918" ry="14.537" transform="matrix(1, 0, 0, 1, 1.1368683772161603e-13, 0)"/>
  <text style="fill: rgb(255, 255, 255); font-family: Arial, sans-serif; font-size: 9.1px; white-space: pre;" x="158.569" y="115.888" transform="matrix(1, 0, 0, 1, 1.1368683772161603e-13, 0)">washer</text>
  <rect x="24.743" y="132.716" width="50.725" height="76.088" style="fill: rgb(216, 216, 216); stroke: rgb(0, 0, 0);" transform="matrix(1, 0, 0, 1, 1.1368683772161603e-13, 0)"/>
  <ellipse style="fill: rgb(216, 216, 216); stroke: rgb(0, 0, 0);" cx="49.796" cy="164.574" rx="13.918" ry="14.537" transform="matrix(1, 0, 0, 1, 1.1368683772161603e-13, 0)"/>
  <text style="fill: rgb(255, 255, 255); font-family: Arial, sans-serif; font-size: 9.1px; white-space: pre;" x="28.209" y="205.126" transform="matrix(1, 0, 0, 1, 1.1368683772161603e-13, 0)">washer</text>
  <rect x="88.916" y="132.798" width="50.725" height="76.088" style="fill: rgb(216, 216, 216); stroke: rgb(0, 0, 0);" transform="matrix(1, 0, 0, 1, 1.1368683772161603e-13, 0)"/>
  <ellipse style="fill: rgb(216, 216, 216); stroke: rgb(0, 0, 0);" cx="113.969" cy="165.656" rx="13.918" ry="14.537" transform="matrix(1, 0, 0, 1, 1.1368683772161603e-13, 0)"/>
  <text style="fill: rgb(255, 255, 255); font-family: Arial, sans-serif; font-size: 9.1px; white-space: pre;" x="92.382" y="205.208" transform="matrix(1, 0, 0, 1, 1.1368683772161603e-13, 0)">washer</text>
  <rect x="154.071" y="132.995" width="50.725" height="76.088" style="fill: rgb(216, 216, 216); stroke: rgb(0, 0, 0);" transform="matrix(1, 0, 0, 1, 1.1368683772161603e-13, 0)"/>
  <ellipse style="fill: rgb(216, 216, 216); stroke: rgb(0, 0, 0);" cx="179.124" cy="165.853" rx="13.918" ry="14.537" transform="matrix(1, 0, 0, 1, 1.1368683772161603e-13, 0)"/>
  <text style="fill: rgb(255, 255, 255); font-family: Arial, sans-serif; font-size: 9.1px; white-space: pre;" x="157.537" y="205.405" transform="matrix(1, 0, 0, 1, 1.1368683772161603e-13, 0)">dryer</text>
  <rect x="24.788" y="219.687" width="50.725" height="76.088" style="fill: rgb(216, 216, 216); stroke: rgb(0, 0, 0);" transform="matrix(1, 0, 0, 1, 1.1368683772161603e-13, 0)"/>
  <ellipse style="fill: rgb(216, 216, 216); stroke: rgb(0, 0, 0);" cx="49.841" cy="251.545" rx="13.918" ry="14.537" transform="matrix(1, 0, 0, 1, 1.1368683772161603e-13, 0)"/>
  <text style="fill: rgb(255, 255, 255); font-family: Arial, sans-serif; font-size: 9.1px; white-space: pre;" x="28.254" y="292.097" transform="matrix(1, 0, 0, 1, 1.1368683772161603e-13, 0)">dryer</text>
  <rect x="88.961" y="219.769" width="50.725" height="76.088" style="fill: rgb(216, 216, 216); stroke: rgb(0, 0, 0);" transform="matrix(1, 0, 0, 1, 1.1368683772161603e-13, 0)"/>
  <ellipse style="fill: rgb(216, 216, 216); stroke: rgb(0, 0, 0);" cx="114.014" cy="252.627" rx="13.918" ry="14.537" transform="matrix(1, 0, 0, 1, 1.1368683772161603e-13, 0)"/>
  <text style="fill: rgb(255, 255, 255); font-family: Arial, sans-serif; font-size: 9.1px; white-space: pre;" x="92.427" y="292.179" transform="matrix(1, 0, 0, 1, 1.1368683772161603e-13, 0)">dryer</text>
  <rect x="154.116" y="219.966" width="50.725" height="76.088" style="fill: rgb(216, 216, 216); stroke: rgb(0, 0, 0);" transform="matrix(1, 0, 0, 1, 1.1368683772161603e-13, 0)"/>
  <ellipse style="fill: rgb(216, 216, 216); stroke: rgb(0, 0, 0);" cx="179.169" cy="252.824" rx="13.918" ry="14.537" transform="matrix(1, 0, 0, 1, 1.1368683772161603e-13, 0)"/>
  <text style="fill: rgb(255, 255, 255); font-family: Arial, sans-serif; font-size: 9.1px; white-space: pre;" x="157.582" y="292.376" transform="matrix(1, 0, 0, 1, 1.1368683772161603e-13, 0)">dryer</text>
  <text style="fill: rgb(255, 255, 255); font-family: Arial, sans-serif; font-size: 10.9px; white-space: pre;" x="94.391" y="55.868" transform="matrix(1, 0, 0, 1, 1.1368683772161603e-13, 0)">2</text>
  <text style="fill: rgb(255, 255, 255); font-family: Arial, sans-serif; font-size: 10.9px; white-space: pre;" x="159.202" y="55.535" transform="matrix(1, 0, 0, 1, 1.1368683772161603e-13, 0)">3</text>
  <text style="fill: rgb(255, 255, 255); font-family: Arial, sans-serif; font-size: 10.9px; white-space: pre;" x="27.506" y="143.974" transform="matrix(1, 0, 0, 1, 1.1368683772161603e-13, 0)">4</text>
  <text style="fill: rgb(255, 255, 255); font-family: Arial, sans-serif; font-size: 10.9px; white-space: pre;" x="92.058" y="144.27" transform="matrix(1, 0, 0, 1, 1.1368683772161603e-13, 0)">5</text>
  <text style="fill: rgb(255, 255, 255); font-family: Arial, sans-serif; font-size: 10.9px; white-space: pre;" x="159.202" y="145.566" transform="matrix(1, 0, 0, 1, 1.1368683772161603e-13, 0)">6</text>
  <text style="fill: rgb(255, 255, 255); font-family: Arial, sans-serif; font-size: 10.9px; white-space: pre;" x="27.982" y="232.154" transform="matrix(1, 0, 0, 1, 1.1368683772161603e-13, 0)">7</text>
  <text style="fill: rgb(255, 255, 255); font-family: Arial, sans-serif; font-size: 10.9px; white-space: pre;" x="93.311" y="231.265" transform="matrix(1, 0, 0, 1, 1.1368683772161603e-13, 0)">8</text>
  <text style="fill: rgb(255, 255, 255); font-family: Arial, sans-serif; font-size: 10.9px; white-space: pre;" x="29.451" y="55.282" transform="matrix(1, 0, 0, 1, 1.1368683772161603e-13, 0)">1</text>
  <text style="fill: rgb(255, 255, 255); font-family: Arial, sans-serif; font-size: 10.9px; white-space: pre;" x="157.517" y="231.376" transform="matrix(1, 0, 0, 1, 1.1368683772161603e-13, 0)">9</text>
  <rect x="22.502" y="329.588" width="184.59" height="50.65" style="fill: rgb(216, 216, 216); stroke: rgb(0, 0, 0);" transform="matrix(1, 0, 0, 1, 1.1368683772161603e-13, 0)"/>
  <text style="fill: rgb(255, 255, 255); font-family: Arial, sans-serif; font-size: 15.8px; white-space: pre;" transform="matrix(1, 0, 0, 1, -3.000000089406967, 1.0000000298023508)"><tspan x="28.88" y="345.345">Please put clothes in</tspan><tspan x="28.88" dy="1em">​</tspan><tspan>basket above when done</tspan></text>
  <path style="fill: rgb(216, 216, 216); stroke: rgb(0, 0, 0);" d="M 50.765 61.582 C 49.728 63.657 47.61 76.435 49.64 78.466 C 51.133 79.958 55.643 85.555 55.643 87.095" transform="matrix(1, 0, 0, 1, 1.1368683772161603e-13, 0)"/>
  <path style="fill: rgb(216, 216, 216); stroke: rgb(0, 0, 0);" d="M 55.268 68.711 C 45.365 74.652 58.907 70.475 61.271 72.838 C 62.866 74.433 56.768 77.34 56.768 77.34 C 56.768 77.34 61.51 78.602 60.145 79.966 C 59.633 80.479 56.768 79.809 56.768 80.717" transform="matrix(1, 0, 0, 1, 1.1368683772161603e-13, 0)"/>
  <path style="fill: rgb(216, 216, 216); stroke: rgb(0, 0, 0);" d="M 114.547 64.209 C 114.547 66.091 116.343 76.294 116.047 76.59 C 115.234 77.403 111.983 75.777 111.17 76.59 C 109.604 78.156 104.792 84.227 104.792 82.217" transform="matrix(1, 0, 0, 1, 1.1368683772161603e-13, 0)"/>
  <path style="fill: rgb(216, 216, 216); stroke: rgb(0, 0, 0);" d="M 120.174 69.836 C 125.234 69.836 117.923 77.715 117.923 77.715 C 117.923 77.715 122.957 77.496 123.176 77.715 C 124.031 78.571 120.357 83.16 119.799 83.718 C 116.99 86.528 113.176 78.71 111.545 80.341 C 108.721 83.166 113.818 89.324 117.548 85.594" transform="matrix(1, 0, 0, 1, 1.1368683772161603e-13, 0)"/>
  <path style="fill: rgb(216, 216, 216); stroke: rgb(0, 0, 0);" d="M 178.703 64.959 C 178.703 66.136 177.724 77.413 179.078 78.09 C 179.492 78.297 186.34 66.218 185.831 65.709 C 181.054 60.932 180.954 73.767 180.954 74.339" transform="matrix(1, 0, 0, 1, 1.1368683772161603e-13, 0)"/>
  <path style="fill: rgb(216, 216, 216); stroke: rgb(0, 0, 0);" d="M 115.672 154.253 C 115.122 157.004 114.683 159.471 113.796 162.131 C 113.687 162.459 113.878 166.258 113.796 166.258 C 112.523 166.258 108.61 152.686 106.668 154.628 C 106.187 155.109 106.984 156.996 106.668 157.629 C 106.329 158.307 102.141 160.981 103.291 162.131 C 103.914 162.754 105.182 159.895 106.293 161.006 C 107.959 162.672 104.21 168.678 105.167 169.635 C 106.042 170.51 108.907 167.747 110.044 168.885 C 110.67 169.51 109.419 172.011 110.044 172.636 C 113.91 176.502 121.631 174.932 123.926 172.636 C 125.304 171.258 121.723 165.978 121.3 165.133 C 121.018 164.568 121.52 158.755 121.3 158.755 C 114.404 158.755 118.087 171.992 113.796 174.137 C 111.064 175.503 107.62 169.606 106.668 171.511 C 105.202 174.442 111.716 177.889 113.421 177.889" transform="matrix(1, 0, 0, 1, 1.1368683772161603e-13, 0)"/>
  <path style="fill: rgb(216, 216, 216); stroke: rgb(0, 0, 0);" d="M 179.078 154.628 C 179.078 161.006 179.078 167.384 179.078 173.762 C 179.078 174.883 179.078 179.39 179.078 179.39 C 179.078 179.39 179.078 177.196 179.078 177.139" transform="matrix(1, 0, 0, 1, 1.1368683772161603e-13, 0)"/>
  <path style="fill: rgb(216, 216, 216); stroke: rgb(0, 0, 0);" d="M 185.081 159.505 C 182.327 166.39 190.749 159.424 188.833 163.257 C 186.517 167.889 188.458 164.382 188.458 164.382 C 188.458 164.382 186.913 167.781 186.206 168.134 C 185.733 168.371 184.316 167.774 183.955 168.134 C 182.254 169.835 185.081 172.857 185.081 175.263" transform="matrix(1, 0, 0, 1, 1.1368683772161603e-13, 0)"/>
  <path style="fill: rgb(216, 216, 216); stroke: rgb(0, 0, 0);" d="M 113.421 240.169 C 113.421 240.673 112.74 252.244 113.046 252.55 C 114.754 254.259 122.123 252.55 124.301 252.55" transform="matrix(1, 0, 0, 1, 1.1368683772161603e-13, 0)"/>
  <path style="fill: rgb(216, 216, 216); stroke: rgb(0, 0, 0);" d="M 117.923 242.421 C 113.867 249.18 117.153 245.027 118.674 246.548 C 118.731 246.605 117.923 249.924 117.923 249.924 C 117.923 249.924 119.726 247.298 120.174 247.298 C 120.255 247.298 120.068 249.067 120.174 249.174 C 120.555 249.554 123.329 249.174 123.926 249.174" transform="matrix(1, 0, 0, 1, 1.1368683772161603e-13, 0)"/>
  <path style="fill: rgb(216, 216, 216); stroke: rgb(0, 0, 0);" d="M 22.605 378.284 C 18.312 378.284 14.02 378.284 9.727 378.284" transform="matrix(1, 0, 0, 1, 1.1368683772161603e-13, 0)"/>
  <path style="fill: rgb(216, 216, 216); stroke: rgb(0, 0, 0);" d="M 207.028 381.503 C 210.535 381.503 214.544 380.583 217.146 380.583" transform="matrix(1, 0, 0, 1, 1.1368683772161603e-13, 0)"/>
  <text style="fill: rgb(255, 255, 255); font-family: Arial, sans-serif; font-size: 19.3px; white-space: pre;" x="66.755" y="400.513" transform="matrix(1, 0, 0, 1, 1.1368683772161603e-13, 0)">washer 1</text>
  <ellipse style="fill: rgb(216, 216, 216); stroke: rgb(0, 0, 0);" cx="41.231" cy="410.631" rx="22.765" ry="23.915" transform="matrix(1, 0, 0, 1, 1.1368683772161603e-13, 0)"/>
  <rect x="74.114" y="412.01" width="22.995" height="22.995" style="stroke: rgb(0, 0, 0); fill: rgb(255, 0, 0);" transform="matrix(1, 0, 0, 1, 1.1368683772161603e-13, 0)"/>
  <rect x="102.152" y="412.39" width="22.995" height="22.995" style="stroke: rgb(0, 0, 0); fill: rgb(121, 167, 210);" transform="matrix(1, 0, 0, 1, 1.1368683772161603e-13, 0)"/>
  <rect x="131.223" y="412.251" width="22.995" height="22.995" style="fill: rgb(216, 216, 216); stroke: rgb(0, 0, 0);" transform="matrix(1, 0, 0, 1, 1.1368683772161603e-13, 0)"/>
  <path style="fill: rgb(216, 216, 216); stroke: rgb(0, 0, 0);" d="M 44.608 391.161 C 42.036 394.023 36.783 411.649 41.818 414.451 C 45.52 416.509 56.706 424.229 56.706 426.354" transform="matrix(1, 0, 0, 1, 1.1368683772161603e-13, 0)"/>
  <path style="fill: rgb(216, 216, 216); stroke: rgb(0, 0, 0);" d="M 49.279 391.232 C 48.007 392.646 46.631 394.015 45.351 395.422 C 44.708 396.13 41.442 400.941 42.208 401.708 C 43.277 402.776 51.466 396.424 52.422 395.946 C 53.51 395.402 55.442 393.483 55.827 394.637 C 57.353 399.215 54.419 405.116 51.636 408.517 C 51.357 408.859 47.688 411.902 48.232 412.445 C 48.337 412.551 49.508 411.546 49.803 411.398 C 50.706 410.947 52.682 411.607 53.47 411.922 C 54.87 412.482 55.858 415.254 56.089 416.636 C 56.102 416.716 56.025 419.58 56.351 419.255 C 57.779 417.826 63.331 409.563 60.279 407.731 C 56.84 405.668 50.28 406.946 46.399 406.946 C 45.368 406.946 41.284 407.677 42.47 405.898 C 43.211 404.786 48.895 400.014 50.589 401.708 C 52.082 403.201 49.582 411.567 49.279 413.231 C 45.433 434.384 50.164 406.777 48.756 416.636 C 48.681 417.162 48.019 418.445 48.494 418.207 C 50.866 417.021 54.011 415.681 56.874 416.636 C 57.149 416.727 61.791 418.85 62.112 418.207 C 63.53 415.371 62.99 411.526 62.636 408.517 C 62.268 405.392 61.85 401.183 59.755 399.089 C 56.173 395.507 54.455 401.553 55.565 404.327 C 57.304 408.673 58.184 410.848 58.184 415.326" transform="matrix(1, 0, 0, 1, 1.1368683772161603e-13, 0)"/>
  <rect x="165.518" y="392.083" width="41.084" height="43.573" style="fill: rgb(216, 216, 216); stroke: rgb(0, 0, 0);" transform="matrix(1, 0, 0, 1, 1.1368683772161603e-13, 0)"/>
  <path style="fill: rgb(216, 216, 216); stroke: rgb(0, 0, 0);" d="M 191.172 408.777 C 183.386 411.891 185.435 422.606 189.304 418.737 C 195.231 412.81 181.578 407.166 177.477 411.267 C 172.417 416.327 189.56 415.88 185.569 411.889 C 181.719 408.039 176.755 429.418 185.569 420.604 C 196.155 410.019 181.197 393.867 174.987 406.287 C 170.223 415.816 186.176 423.748 189.304 417.492 C 197.658 400.784 170.126 408.392 178.1 424.339 C 183.578 435.295 205.612 422.595 193.662 410.644 C 184.588 401.571 184.991 426.785 194.284 417.492 C 198.24 413.536 191.33 406.751 188.059 410.022 C 181.776 416.305 189.927 424.96 189.927 419.982" transform="matrix(1, 0, 0, 1, 1.1368683772161603e-13, 0)"/>
</svg>